name p1_grf_mean_speed_1.8
datacolumns 13
datarows 46
range 0.0000000000 0.4500000000
endheader
time	grf_x_l_mean	grf_x_l_var	grf_y_l_mean	grf_y_l_var	grf_z_l_mean	grf_z_l_var	grf_x_r_mean	grf_x_r_var	grf_y_r_mean	grf_y_r_var	grf_z_r_mean	grf_z_r_var
0.0000000000	178.1621575986	1.0000000000	723.5801984948	1.0000000000	0.0000000000	0.0000000000	5.0952911055	1.0000000000	11.5607224183	1.0000000000	0.0000000000	0.0000000000
0.0100000000	189.9012292273	1.0000000000	703.3849020776	1.0000000000	0.0000000000	0.0000000000	3.1251261492	1.0000000000	58.7934149051	1.0000000000	0.0000000000	0.0000000000
0.0200000000	199.0151616506	1.0000000000	670.5997074138	1.0000000000	0.0000000000	0.0000000000	-3.5454563423	1.0000000000	137.5923119048	1.0000000000	0.0000000000	0.0000000000
0.0300000000	204.4140814189	1.0000000000	624.9376489845	1.0000000000	0.0000000000	0.0000000000	-18.5041352994	1.0000000000	246.7759466181	1.0000000000	0.0000000000	0.0000000000
0.0400000000	204.5309308790	1.0000000000	566.2719875260	1.0000000000	0.0000000000	0.0000000000	-45.9442511143	1.0000000000	374.0819880496	1.0000000000	0.0000000000	0.0000000000
0.0500000000	197.2308493107	1.0000000000	495.0529376837	1.0000000000	0.0000000000	0.0000000000	-84.7378820318	1.0000000000	500.6360376186	1.0000000000	0.0000000000	0.0000000000
0.0600000000	181.9921784544	1.0000000000	413.7155159515	1.0000000000	0.0000000000	0.0000000000	-126.9838510969	1.0000000000	611.9496182011	1.0000000000	0.0000000000	0.0000000000
0.0700000000	159.1114439610	1.0000000000	327.3887431844	1.0000000000	0.0000000000	0.0000000000	-164.3591470462	1.0000000000	702.7558152482	1.0000000000	0.0000000000	0.0000000000
0.0800000000	129.7623744307	1.0000000000	242.2529505889	1.0000000000	0.0000000000	0.0000000000	-194.3585261180	1.0000000000	773.6687010719	1.0000000000	0.0000000000	0.0000000000
0.0900000000	96.6877715976	1.0000000000	164.2455932637	1.0000000000	0.0000000000	0.0000000000	-216.1874202625	1.0000000000	827.3441191785	1.0000000000	0.0000000000	0.0000000000
0.1000000000	64.5060458346	1.0000000000	98.9884883709	1.0000000000	0.0000000000	0.0000000000	-228.1516601145	1.0000000000	866.9835794419	1.0000000000	0.0000000000	0.0000000000
0.1100000000	37.1208738329	1.0000000000	50.3598188302	1.0000000000	0.0000000000	0.0000000000	-230.1719659035	1.0000000000	895.2540946725	1.0000000000	0.0000000000	0.0000000000
0.1200000000	16.7336955270	1.0000000000	18.6835698595	1.0000000000	0.0000000000	0.0000000000	-223.9884806390	1.0000000000	913.3943221635	1.0000000000	0.0000000000	0.0000000000
0.1300000000	4.2842190656	1.0000000000	1.2433417231	1.0000000000	0.0000000000	0.0000000000	-210.8880142493	1.0000000000	921.1124908744	1.0000000000	0.0000000000	0.0000000000
0.1400000000	0.0000000000	1.0000000000	0.0000000000	1.0000000000	0.0000000000	0.0000000000	-191.8902949286	1.0000000000	917.8253417483	1.0000000000	0.0000000000	0.0000000000
0.1500000000	0.0000000000	1.0000000000	0.0000000000	1.0000000000	0.0000000000	0.0000000000	-169.5571058490	1.0000000000	903.1725222798	1.0000000000	0.0000000000	0.0000000000
0.1600000000	0.0000000000	1.0000000000	0.0000000000	1.0000000000	0.0000000000	0.0000000000	-145.8595040337	1.0000000000	876.8259698599	1.0000000000	0.0000000000	0.0000000000
0.1700000000	0.0000000000	1.0000000000	0.0000000000	1.0000000000	0.0000000000	0.0000000000	-121.7775670614	1.0000000000	839.8326838950	1.0000000000	0.0000000000	0.0000000000
0.1800000000	0.0000000000	1.0000000000	0.0000000000	1.0000000000	0.0000000000	0.0000000000	-98.7852937862	1.0000000000	794.9509691417	1.0000000000	0.0000000000	0.0000000000
0.1900000000	0.0000000000	1.0000000000	0.0000000000	1.0000000000	0.0000000000	0.0000000000	-78.0576000289	1.0000000000	744.6300542484	1.0000000000	0.0000000000	0.0000000000
0.2000000000	0.1427812384	1.0000000000	0.3180454082	1.0000000000	0.0000000000	0.0000000000	-59.5658088756	1.0000000000	689.9516713515	1.0000000000	0.0000000000	0.0000000000
0.2100000000	0.3131489949	1.0000000000	0.5262787699	1.0000000000	0.0000000000	0.0000000000	-43.2751316281	1.0000000000	632.2899601468	1.0000000000	0.0000000000	0.0000000000
0.2200000000	0.2552825163	1.0000000000	0.5186622336	1.0000000000	0.0000000000	0.0000000000	-29.6723704332	1.0000000000	574.7147629045	1.0000000000	0.0000000000	0.0000000000
0.2300000000	0.3615971337	1.0000000000	0.5552739443	1.0000000000	0.0000000000	0.0000000000	-18.5584226721	1.0000000000	520.8211211722	1.0000000000	0.0000000000	0.0000000000
0.2400000000	0.5691793488	1.0000000000	0.4800974761	1.0000000000	0.0000000000	0.0000000000	-9.5686053907	1.0000000000	472.7843290675	1.0000000000	0.0000000000	0.0000000000
0.2500000000	0.4943744359	1.0000000000	0.2470704002	1.0000000000	0.0000000000	0.0000000000	-2.6180149819	1.0000000000	431.1993977141	1.0000000000	0.0000000000	0.0000000000
0.2600000000	0.3777680894	1.0000000000	0.1005444973	1.0000000000	0.0000000000	0.0000000000	2.4750329572	1.0000000000	396.7291038980	1.0000000000	0.0000000000	0.0000000000
0.2700000000	0.3956989184	1.0000000000	0.0967542698	1.0000000000	0.0000000000	0.0000000000	6.2277087886	1.0000000000	370.7456696927	1.0000000000	0.0000000000	0.0000000000
0.2800000000	0.3214969173	1.0000000000	0.0796426453	1.0000000000	0.0000000000	0.0000000000	8.8657005838	1.0000000000	353.9271492502	1.0000000000	0.0000000000	0.0000000000
0.2900000000	0.2361675914	1.0000000000	0.0777639250	1.0000000000	0.0000000000	0.0000000000	10.6460767200	1.0000000000	345.4423765881	1.0000000000	0.0000000000	0.0000000000
0.3000000000	0.3445099239	1.0000000000	0.1845166609	1.0000000000	0.0000000000	0.0000000000	12.1200011972	1.0000000000	343.9965415075	1.0000000000	0.0000000000	0.0000000000
0.3100000000	0.3392751591	1.0000000000	0.2167943282	1.0000000000	0.0000000000	0.0000000000	13.6812720132	1.0000000000	348.8662255374	1.0000000000	0.0000000000	0.0000000000
0.3200000000	0.0590297735	1.0000000000	0.0642664109	1.0000000000	0.0000000000	0.0000000000	15.6633772551	1.0000000000	359.6804234131	1.0000000000	0.0000000000	0.0000000000
0.3300000000	0.0000000000	1.0000000000	0.0000000000	1.0000000000	0.0000000000	0.0000000000	18.3369411667	1.0000000000	375.9407790154	1.0000000000	0.0000000000	0.0000000000
0.3400000000	0.0490037724	1.0000000000	0.1057967015	1.0000000000	0.0000000000	0.0000000000	21.9002826964	1.0000000000	396.8347140487	1.0000000000	0.0000000000	0.0000000000
0.3500000000	0.1459680244	1.0000000000	0.1444511132	1.0000000000	0.0000000000	0.0000000000	26.5740136700	1.0000000000	421.2313794421	1.0000000000	0.0000000000	0.0000000000
0.3600000000	0.0000000000	1.0000000000	0.0000000000	1.0000000000	0.0000000000	0.0000000000	32.6215419585	1.0000000000	448.2249602901	1.0000000000	0.0000000000	0.0000000000
0.3700000000	0.0000000000	1.0000000000	0.0000000000	1.0000000000	0.0000000000	0.0000000000	39.9284893541	1.0000000000	477.5872035026	1.0000000000	0.0000000000	0.0000000000
0.3800000000	0.0754096564	1.0000000000	0.2899459598	1.0000000000	0.0000000000	0.0000000000	48.3103996982	1.0000000000	509.1842005361	1.0000000000	0.0000000000	0.0000000000
0.3900000000	-0.0687999907	1.0000000000	0.6766016918	1.0000000000	0.0000000000	0.0000000000	57.8814767896	1.0000000000	542.2045118650	1.0000000000	0.0000000000	0.0000000000
0.4000000000	-0.1754856208	1.0000000000	0.8052495290	1.0000000000	0.0000000000	0.0000000000	68.6826560840	1.0000000000	575.4231307103	1.0000000000	0.0000000000	0.0000000000
0.4100000000	-0.2935941467	1.0000000000	0.6313189649	1.0000000000	0.0000000000	0.0000000000	80.5557350515	1.0000000000	607.9395160221	1.0000000000	0.0000000000	0.0000000000
0.4200000000	0.0000000000	1.0000000000	0.0000000000	1.0000000000	0.0000000000	0.0000000000	93.4764854927	1.0000000000	639.1291393924	1.0000000000	0.0000000000	0.0000000000
0.4300000000	0.0000000000	1.0000000000	0.0000000000	1.0000000000	0.0000000000	0.0000000000	107.3698037353	1.0000000000	668.0592879073	1.0000000000	0.0000000000	0.0000000000
0.4400000000	0.0000000000	1.0000000000	0.0000000000	1.0000000000	0.0000000000	0.0000000000	121.7928855772	1.0000000000	693.3102395142	1.0000000000	0.0000000000	0.0000000000
0.4500000000	0.0000000000	1.0000000000	0.0000000000	1.0000000000	0.0000000000	0.0000000000	136.3804556419	1.0000000000	713.2832369691	1.0000000000	0.0000000000	0.0000000000
